<svg version="1.1" id="Layer_1" xmlns="http://www.w3.org/2000/svg" xmlns:xlink="http://www.w3.org/1999/xlink" x="0px" y="0px"
	 width="100%" viewBox="0 0 1280 2048" enable-background="new 0 0 1280 2048" xml:space="preserve">
<path fill="#000000" opacity="1.000000" stroke="none" 
	d="
M1249.937012,909.106812 
	C1250.285645,905.335999 1250.592285,901.560669 1250.991699,897.795227 
	C1251.840698,889.788940 1252.575928,881.764648 1253.710693,873.798035 
	C1254.066284,871.301758 1253.553955,870.386414 1251.227905,869.576538 
	C1220.141846,858.752502 1189.080444,847.856812 1158.034302,836.918518 
	C1139.482422,830.382263 1120.988159,823.681946 1102.425293,817.177063 
	C1095.929688,814.900818 1089.306396,812.988892 1081.956787,810.662170 
	C1082.885498,812.487915 1083.169189,813.505737 1083.799438,814.216003 
	C1094.854248,826.675354 1105.986694,839.066040 1117.025879,851.539185 
	C1123.250488,858.572266 1129.250244,865.805054 1135.509155,872.806702 
	C1142.211304,880.304138 1149.098877,887.635803 1156.193726,895.661743 
	C1162.198120,902.676025 1168.113647,909.768799 1174.226440,916.687439 
	C1185.271973,929.189331 1196.505981,941.525696 1207.442261,954.121582 
	C1208.563843,955.413452 1209.015503,958.318665 1208.383545,959.927795 
	C1205.137939,968.193237 1201.445923,976.283752 1197.890991,984.427185 
	C1195.333984,990.284546 1192.747437,996.129089 1189.825928,1002.606079 
	C1182.502075,1017.141052 1175.271973,1031.724243 1167.829468,1046.198120 
	C1159.378296,1062.633911 1150.703125,1078.954102 1142.189941,1095.358154 
	C1136.052612,1107.184204 1130.020996,1119.065186 1123.312134,1131.236206 
	C1122.868652,1131.713989 1122.305908,1132.125610 1121.999023,1132.679199 
	C1112.403442,1149.986938 1102.883179,1167.336792 1093.242310,1184.619263 
	C1085.531616,1198.442139 1077.678955,1212.186035 1069.351807,1226.373657 
	C1060.433350,1241.194336 1051.522705,1256.019775 1042.593628,1270.834106 
	C1036.131104,1281.555908 1029.643921,1292.262817 1022.800476,1303.565063 
	C1007.157043,1327.701538 991.513550,1351.837891 975.361084,1376.400513 
	C970.329102,1383.761719 965.149109,1391.028931 960.374023,1398.553101 
	C959.243591,1400.334229 958.441589,1403.465454 959.237305,1405.149292 
	C966.659973,1420.857300 974.464417,1436.384888 982.330505,1452.657959 
	C982.780396,1453.904297 983.122498,1455.202637 983.695801,1456.389404 
	C1002.791870,1495.920532 1021.904114,1535.443848 1041.049438,1574.951050 
	C1041.706299,1576.306519 1042.726440,1577.486084 1044.038086,1579.431152 
	C1064.166626,1544.957397 1082.006714,1510.481445 1098.184448,1474.340210 
	C1105.143433,1458.642212 1112.177246,1442.976929 1119.025635,1427.230835 
	C1121.913086,1420.592285 1124.409180,1413.783569 1127.602783,1406.580444 
	C1137.429932,1381.066406 1147.257080,1355.552490 1157.592529,1329.514648 
	C1160.212524,1322.033813 1162.993286,1314.604736 1165.421021,1307.062134 
	C1171.744385,1287.416260 1177.913086,1267.720459 1184.681152,1247.529175 
	C1189.988525,1227.613770 1195.432373,1207.733276 1200.552490,1187.769775 
	C1203.663208,1175.640991 1206.273560,1163.383911 1209.752563,1150.703613 
	C1210.078735,1148.928223 1210.370361,1147.145630 1210.736816,1145.378540 
	C1213.139648,1133.792358 1215.684204,1122.233765 1217.945557,1110.620117 
	C1222.306030,1088.227539 1226.633667,1065.827026 1230.720093,1043.383423 
	C1232.486450,1033.682251 1233.619507,1023.865784 1235.658325,1013.572205 
	C1237.716309,1000.092834 1239.851685,986.624573 1241.807373,973.130371 
	C1243.318115,962.706726 1244.654175,952.256897 1245.975952,941.807068 
	C1247.316528,931.208130 1248.544312,920.594910 1249.937012,909.106812 
M121.961494,1062.258423 
	C114.993507,1048.221191 107.787285,1034.296021 101.115135,1020.119446 
	C91.829689,1000.390381 82.987228,980.453125 73.840889,960.657837 
	C72.476097,957.704041 72.678169,955.676758 75.100800,953.294678 
	C78.984299,949.476379 82.425026,945.207764 86.597328,940.721069 
	C92.998543,933.373230 99.356102,925.986755 105.811745,918.687073 
	C114.248116,909.147766 122.813011,899.721863 131.230225,890.165894 
	C142.577835,877.282898 153.790024,864.280518 165.150269,851.408752 
	C173.775635,841.635742 182.580704,832.021423 191.223175,822.263245 
	C194.216553,818.883545 196.961380,815.283630 199.819748,811.784302 
	C199.556747,811.405457 199.293747,811.026611 199.030746,810.647827 
	C142.066757,830.616516 85.102768,850.585205 28.128645,870.557495 
	C29.478493,884.106567 30.707882,897.385437 32.163330,910.639526 
	C32.840389,916.805237 33.956291,922.922668 34.933178,929.948242 
	C34.973221,931.778992 34.827347,933.636169 35.082428,935.436401 
	C37.326912,951.277161 39.527466,967.125549 41.965717,982.937073 
	C45.260456,1004.302673 48.754078,1025.637573 52.073627,1047.803711 
	C58.769814,1081.527710 65.465996,1115.251831 72.354736,1149.722778 
	C74.920143,1160.632568 77.290192,1171.592896 80.095398,1182.440674 
	C84.634552,1199.993896 89.459602,1217.473022 94.162018,1235.754761 
	C95.120247,1239.266113 95.940437,1242.822021 97.059738,1246.281250 
	C102.968613,1264.542725 108.952919,1282.780029 114.992744,1301.798706 
	C122.314186,1321.890991 129.635635,1341.983154 137.090805,1362.806763 
	C142.318253,1376.113647 147.142700,1389.596069 152.851059,1402.693359 
	C168.128281,1437.745605 183.334213,1472.842285 199.463852,1507.504517 
	C208.716492,1527.388306 219.664780,1546.486084 229.960434,1565.878906 
	C232.318710,1570.321167 235.132675,1574.521362 238.238983,1579.664185 
	C239.646866,1577.227295 240.547440,1575.871582 241.248840,1574.419678 
	C244.430740,1567.833008 247.538818,1561.210938 250.705429,1554.616821 
	C263.232330,1528.531128 275.729401,1502.430908 288.318359,1476.375244 
	C299.465515,1453.303589 310.639862,1430.244141 322.009460,1407.281860 
	C323.799103,1403.667480 324.092896,1400.805908 320.755219,1397.373657 
	C312.811859,1385.546631 304.876434,1373.714355 296.922699,1361.894409 
	C290.645386,1352.565674 284.345459,1343.252441 277.897705,1333.252197 
	C273.753632,1326.483521 269.661133,1319.682617 265.455383,1312.952515 
	C255.031189,1296.271851 244.555359,1279.623291 233.932816,1262.275757 
	C225.451920,1247.841431 216.936646,1233.427124 208.499268,1218.967407 
	C198.983917,1202.660156 189.538620,1186.311890 179.744583,1169.356812 
	C176.807037,1163.824585 173.907959,1158.271362 170.925247,1152.763672 
	C158.004501,1128.904785 145.064484,1105.056396 132.119415,1081.210693 
	C128.811096,1075.116455 125.458626,1069.046021 121.961494,1062.258423 
M952.409546,1360.875000 
	C952.678406,1360.675781 952.825989,1360.409302 952.986328,1359.561768 
	C953.025024,1359.388916 953.063721,1359.216187 953.609009,1358.599487 
	C958.740967,1349.895020 963.916504,1341.215942 968.994995,1332.480469 
	C977.400024,1318.022827 985.742554,1303.528809 994.626038,1288.601196 
	C1007.349426,1266.396606 1020.072876,1244.192017 1033.159302,1221.378662 
	C1034.167480,1219.677490 1035.209717,1217.995239 1036.178589,1216.271973 
	C1043.938843,1202.468628 1051.685303,1188.657593 1059.848755,1174.250366 
	C1063.279175,1168.250244 1066.788086,1162.293457 1070.122437,1156.240356 
	C1075.823853,1145.890381 1081.415649,1135.479980 1087.671021,1124.756714 
	C1091.522827,1117.920288 1095.439453,1111.119263 1099.211426,1104.239136 
	C1104.894043,1093.874146 1110.475586,1083.453735 1116.654053,1072.645874 
	C1116.856689,1072.194702 1117.032104,1071.728760 1117.265991,1071.294434 
	C1126.118774,1054.857666 1134.976929,1038.423706 1144.165161,1021.361267 
	C1151.054688,1008.238159 1157.944092,995.115051 1165.166138,981.360901 
	C1168.078613,976.073547 1171.219604,970.892944 1173.769287,965.435974 
	C1174.567505,963.727295 1174.626221,960.588135 1173.568970,959.273376 
	C1166.638306,950.654663 1159.308716,942.356567 1151.990601,933.261108 
	C1149.989502,930.676819 1148.077271,928.017578 1145.973389,925.519836 
	C1127.279541,903.326172 1108.551636,881.161133 1089.705566,858.339355 
	C1081.209473,848.465332 1072.635620,838.656982 1064.240356,828.697876 
	C1056.605591,819.640808 1049.196289,810.393921 1041.628784,801.279663 
	C1036.048462,794.559082 1031.047607,787.161377 1024.593750,781.405029 
	C1012.820801,770.904602 1000.167358,761.390747 987.871399,751.477600 
	C970.965637,737.847961 954.065735,724.210938 937.130432,710.617981 
	C932.112854,706.590576 926.984741,702.700989 920.996399,698.039246 
	C926.407227,721.383667 931.728760,743.271423 936.509949,765.276611 
	C941.154358,786.652954 948.303467,807.649109 946.769714,830.708740 
	C945.303223,838.894714 943.891602,847.091003 942.356750,855.264099 
	C940.245361,866.507874 938.040649,877.734070 935.274353,889.449158 
	C934.596924,892.471924 933.905518,895.491699 933.244385,898.518066 
	C930.879517,909.343323 928.525024,920.170837 925.799011,931.688599 
	C924.944458,934.973938 924.025574,938.244141 923.247131,941.547424 
	C920.784790,951.996094 918.375000,962.457153 915.350464,973.402954 
	C910.955444,990.932617 906.560425,1008.462219 901.969421,1026.762085 
	C899.882812,1034.671143 897.739136,1042.565552 895.723450,1050.492676 
	C893.059937,1060.968140 890.496765,1071.468994 887.324951,1082.440918 
	C885.785461,1088.155762 884.204407,1093.859863 882.715210,1099.587769 
	C879.736938,1111.043579 876.809021,1122.512329 873.312439,1134.467163 
	C868.859619,1150.955200 864.406799,1167.443115 859.420654,1184.467163 
	C857.896851,1190.023560 856.385376,1195.583496 854.846924,1201.135864 
	C849.879761,1219.062744 844.902588,1236.986816 839.393738,1255.438477 
	C835.249512,1269.844604 831.080139,1284.243652 826.969177,1298.659302 
	C823.900330,1309.420532 820.906860,1320.203125 817.372314,1331.497192 
	C815.358826,1338.127441 813.306519,1344.746216 811.339539,1351.390259 
	C806.843323,1366.577393 802.388794,1381.776978 797.423401,1397.515991 
	C793.333313,1410.299194 789.243164,1423.082275 785.064392,1435.049438 
	C783.389954,1424.957397 781.651001,1414.875366 780.057983,1404.770508 
	C778.257874,1393.352539 776.664673,1381.901611 774.841675,1370.487427 
	C772.997375,1358.939697 771.013123,1347.413940 769.028076,1335.889282 
	C768.105103,1330.531128 767.035217,1325.198120 765.985229,1318.997681 
	C764.656799,1309.970581 763.388916,1300.934082 761.984924,1291.918701 
	C760.153137,1280.156738 758.215942,1268.411011 756.319580,1256.659058 
	C754.217041,1243.629395 752.059937,1230.608398 750.018188,1217.569336 
	C748.082214,1205.205200 746.264587,1192.822510 744.376770,1180.327759 
	C747.455566,1179.896851 750.715759,1179.618042 753.897766,1178.961060 
	C762.635315,1177.157104 769.769531,1174.997437 766.088257,1163.287354 
	C764.925781,1159.589600 764.530884,1155.624756 764.025696,1151.750732 
	C762.609070,1140.888550 761.456543,1129.990479 759.924500,1119.145508 
	C759.044617,1112.916748 755.667236,1109.960083 751.575745,1111.160889 
	C745.700623,1112.885254 739.833191,1114.635742 733.566223,1116.492676 
	C732.959839,1114.166748 732.406433,1112.342529 732.011963,1110.484619 
	C728.408752,1093.509521 725.053101,1076.478271 721.187012,1059.563599 
	C717.389404,1042.948242 713.355408,1026.375488 708.911743,1009.922729 
	C705.287598,996.504272 700.906067,983.290344 696.986145,969.227966 
	C689.667725,949.747620 682.315063,930.279968 675.120850,910.753845 
	C674.714111,909.649963 675.130859,907.467590 675.970520,906.797913 
	C686.154602,898.675659 696.490295,890.743408 706.371338,883.083679 
	C705.842529,877.755554 705.360046,872.894531 704.981567,867.096985 
	C704.942383,856.563171 704.730103,846.048096 707.618042,835.723206 
	C713.210205,815.730530 723.735596,798.287598 735.225220,781.309509 
	C737.987854,777.227295 740.681091,773.098145 743.466919,768.899048 
	C703.235107,752.849426 567.079651,754.723145 538.711060,769.235535 
	C542.871460,775.396484 547.443848,781.280701 551.056763,787.704590 
	C558.288818,800.563293 565.780151,813.373291 571.691284,826.849609 
	C577.218750,839.451050 577.400208,853.333557 576.982910,867.909485 
	C576.579224,872.930542 576.175537,877.951599 575.753845,883.196716 
	C585.752991,890.957825 596.117065,898.917847 606.316345,907.083740 
	C607.104614,907.714966 607.271362,910.010498 606.806396,911.160156 
	C605.096924,915.387329 602.631470,919.326904 601.110596,923.609192 
	C594.262146,942.892273 586.865845,962.029236 581.125854,981.645752 
	C573.371094,1008.147705 566.800781,1035.002319 560.038208,1061.785278 
	C557.533081,1071.706543 555.922485,1081.853638 553.252075,1092.371826 
	C552.954712,1093.966797 552.658691,1095.562012 552.359863,1097.156738 
	C549.907898,1110.239624 547.295898,1123.295166 545.045471,1136.412598 
	C542.483398,1151.346558 540.279114,1166.341553 537.854858,1181.299438 
	C535.275757,1197.212891 532.559326,1213.104004 530.020142,1229.023682 
	C528.200378,1240.432617 526.675537,1251.888916 524.831909,1263.293823 
	C523.013184,1274.544922 520.807922,1285.734131 519.044189,1296.993286 
	C516.547852,1312.928345 514.432922,1328.923462 511.907104,1344.853638 
	C509.791138,1358.198608 507.229218,1371.472412 505.028534,1384.804810 
	C502.218201,1401.831055 499.572449,1418.884644 496.411194,1435.388428 
	C492.224091,1422.246582 488.036957,1409.104736 483.875916,1395.466919 
	C483.875916,1395.466919 483.852661,1394.970581 483.700317,1394.539307 
	C483.531799,1394.275513 483.310150,1394.068604 482.958191,1393.152344 
	C474.253021,1363.766357 465.547852,1334.380493 456.628448,1304.291992 
	C455.413574,1300.175537 454.217072,1296.053589 452.980377,1291.943726 
	C449.272186,1279.620239 445.548340,1267.301514 441.822906,1254.210327 
	C440.516327,1249.272949 439.309814,1244.306519 437.883575,1239.403931 
	C434.251282,1226.917725 430.520782,1214.460327 426.898438,1201.210449 
	C422.541840,1185.469238 418.185272,1169.728149 413.854065,1153.224976 
	C412.221527,1147.374146 410.618774,1141.514771 408.949860,1135.674316 
	C405.930573,1125.108398 402.871887,1114.553711 399.906525,1103.199829 
	C397.455353,1093.839600 395.052460,1084.466431 392.538452,1075.123047 
	C390.369293,1067.061279 388.073700,1059.033569 385.915192,1050.207153 
	C382.221344,1036.135864 378.527496,1022.064636 374.869385,1007.215454 
	C371.621155,994.801636 368.372894,982.387817 365.026703,969.158813 
	C362.706848,959.313782 360.439575,949.455933 358.050873,939.627686 
	C356.050629,931.397827 353.908539,923.202393 351.935455,914.169312 
	C351.619415,912.413330 351.335388,910.650818 350.982452,908.902283 
	C345.605438,882.262207 340.219391,855.623901 334.940094,828.188110 
	C335.334473,820.749817 334.760559,813.104919 336.295380,805.909912 
	C342.111481,778.645020 348.616516,751.527161 354.851044,724.351379 
	C356.759796,716.031250 358.627319,707.701721 360.806946,698.082458 
	C358.321808,699.870605 356.969360,700.739197 355.734344,701.751099 
	C351.274139,705.405579 346.900391,709.166687 342.408936,712.781799 
	C329.488831,723.181030 316.528748,733.530518 303.581390,743.895874 
	C292.298950,752.928406 280.975098,761.909790 269.744446,771.006287 
	C264.619843,775.157104 259.189117,779.083496 254.759308,783.903931 
	C247.433273,791.876160 240.805359,800.489868 233.285263,809.174438 
	C229.945480,813.219238 226.621735,817.277405 223.262985,821.306335 
	C211.612991,835.281067 199.912781,849.214172 188.313370,863.230713 
	C184.051804,868.380371 180.017807,873.718384 175.292465,879.274841 
	C163.224533,893.515198 151.156586,907.755493 138.784180,922.601074 
	C130.822235,932.049500 122.860283,941.497986 114.321999,951.284851 
	C112.504944,953.411682 110.306053,955.329895 108.993896,957.732483 
	C107.978928,959.590942 107.051155,962.556152 107.840714,964.170349 
	C113.261307,975.252441 119.144814,986.108215 125.042076,997.734497 
	C135.098389,1016.485229 145.154709,1035.235962 155.404404,1054.632202 
	C160.629333,1064.155151 165.782013,1073.718628 171.101410,1083.188477 
	C175.599426,1091.196045 180.290634,1099.095093 185.031982,1107.752441 
	C194.326828,1124.517944 203.621674,1141.283569 213.233917,1158.670166 
	C223.789490,1177.128784 234.345078,1195.587280 245.054489,1214.742676 
	C255.423843,1232.822998 265.793182,1250.903442 276.345367,1269.641602 
	C290.068542,1293.363892 303.733948,1317.119995 317.547455,1340.789551 
	C322.136627,1348.653198 327.105988,1356.294800 332.040802,1364.740479 
	C332.617584,1365.930542 333.113922,1367.168091 333.783539,1368.303345 
	C340.874451,1380.327515 348.103027,1392.272949 354.981171,1404.417114 
	C355.973846,1406.169800 356.139343,1409.244507 355.286774,1411.043579 
	C351.230499,1419.603271 346.619110,1427.897583 342.333984,1436.351562 
	C327.434448,1465.746826 312.615540,1495.182861 297.712250,1524.576172 
	C287.628052,1544.464722 277.504364,1564.333862 267.278076,1584.149536 
	C265.177917,1588.219116 264.458160,1591.433105 268.329254,1595.196045 
	C274.149933,1600.854004 279.267334,1607.229736 284.775665,1613.215698 
	C304.583008,1634.739868 324.443054,1656.215454 344.254700,1677.735474 
	C355.390411,1689.831543 366.638550,1701.829834 377.537476,1714.136475 
	C396.029449,1735.017090 414.402740,1756.005493 432.607941,1777.136353 
	C451.568878,1799.144531 470.510040,1821.178101 489.026001,1843.559326 
	C510.817749,1869.900146 532.710571,1896.191040 553.521301,1923.300781 
	C577.376221,1954.375854 600.184265,1986.258301 623.239807,2017.940918 
	C629.431580,2026.449341 634.868774,2035.506836 640.814636,2044.559448 
	C641.688538,2043.583740 642.319031,2043.036011 642.759705,2042.363892 
	C648.773193,2033.197632 654.370483,2023.729858 660.823486,2014.885742 
	C684.996033,1981.755493 708.653381,1948.203979 733.999756,1915.987305 
	C763.448486,1878.556519 794.320862,1842.238770 824.864441,1805.679321 
	C842.844666,1784.157715 861.274292,1763.007446 879.711060,1741.872681 
	C893.464844,1726.106445 907.473328,1710.559692 921.513489,1695.046631 
	C939.014893,1675.709839 956.614990,1656.461792 974.268250,1637.263672 
	C987.540771,1622.829468 1000.901123,1608.474487 1014.379272,1594.232666 
	C1016.744934,1591.732910 1016.980896,1589.751221 1015.445129,1586.776245 
	C1009.869690,1575.975952 1004.613281,1565.011353 999.065613,1554.196411 
	C992.165405,1540.744751 985.095520,1527.380127 977.914734,1513.277832 
	C970.390015,1498.105713 962.972351,1482.879272 955.309814,1467.777100 
	C948.036255,1453.441528 940.506470,1439.235718 932.927856,1424.267456 
	C930.827576,1419.933105 928.885925,1415.511597 926.571472,1411.294800 
	C925.024292,1408.475830 925.205261,1406.276123 926.887817,1403.497559 
	C935.391968,1389.453491 943.663757,1375.268555 952.409546,1360.875000 
M426.452454,99.047905 
	C425.912720,99.340973 425.372955,99.634033 424.233856,100.241203 
	C420.803680,104.459564 417.373505,108.677925 413.342285,113.221001 
	C409.182861,118.797684 405.023438,124.374367 400.313019,130.341614 
	C395.914978,137.227585 391.516937,144.113571 386.797607,151.627289 
	C384.488281,156.069946 382.178925,160.512589 379.326355,165.377014 
	C375.940094,172.915665 372.553802,180.454300 368.808258,188.644669 
	C367.617584,192.012939 366.426941,195.381210 364.931244,199.342560 
	C362.598358,206.864349 360.265503,214.386139 357.390625,222.441925 
	C355.887756,229.615204 354.384888,236.788467 352.361450,244.536697 
	C351.296448,252.352814 350.231476,260.168945 349.047729,268.835632 
	C348.748169,274.219971 348.448639,279.604279 348.010345,285.827423 
	C348.056641,294.880585 348.102936,303.933777 348.058380,313.913025 
	C349.342346,325.617493 350.626312,337.321991 351.949066,349.885956 
	C354.983368,362.796234 357.270905,375.938995 361.203339,388.569611 
	C370.105438,417.162445 383.441193,443.671906 400.728149,468.199677 
	C416.731659,490.906403 435.497284,511.031036 457.133698,528.357727 
	C477.848053,544.945984 500.479492,558.466370 524.906189,569.028564 
	C560.462952,584.403198 597.689209,591.767700 636.241272,592.916748 
	C643.520264,593.133667 650.858154,592.634766 658.118530,591.939880 
	C670.987000,590.708313 683.920532,589.675720 696.642212,587.486877 
	C727.064026,582.252686 755.546875,571.240967 782.617554,556.596375 
	C790.028992,552.586853 796.919495,547.614441 804.727417,542.920898 
	C814.171692,535.646118 823.616028,528.371338 833.621765,520.729919 
	C840.436890,514.187317 847.252075,507.644745 854.630127,500.739655 
	C858.105164,496.861084 861.580139,492.982513 865.570557,488.669189 
	C870.415222,482.130646 875.259888,475.592133 880.669983,468.695190 
	C884.129883,463.501099 887.589722,458.306976 891.584961,452.669983 
	C895.768616,444.794434 899.952332,436.918884 904.659180,428.605988 
	C906.359192,425.068085 908.059265,421.530212 909.971191,417.282227 
	C912.667603,410.238861 915.363953,403.195526 918.640442,395.680115 
	C920.133667,390.469727 921.626831,385.259369 923.678040,379.545288 
	C925.498108,371.386688 927.318237,363.228088 929.733521,354.530212 
	C930.434326,348.349274 931.135132,342.168365 932.238464,335.252258 
	C932.770691,328.832428 933.302979,322.412628 933.949097,315.189178 
	C934.244751,308.456512 934.540405,301.723877 934.950867,294.118530 
	C934.244934,284.407837 933.538940,274.697144 932.894958,264.163055 
	C932.593445,262.736023 932.292603,261.308807 931.990234,259.881958 
	C929.029724,245.914108 926.068909,231.946320 922.997803,217.192734 
	C922.028809,213.910873 921.144592,210.601151 920.076965,207.351700 
	C913.622192,187.706360 905.192627,168.938126 894.851562,150.299759 
	C894.496521,149.948532 894.045166,149.654007 893.800293,149.237930 
	C883.546997,131.814240 871.521973,115.646576 858.012695,100.674644 
	C844.262573,85.435692 828.862549,71.855095 812.095215,60.024822 
	C786.421265,41.910385 758.632812,28.062613 728.519714,18.608217 
	C700.561462,9.830378 671.940430,5.868857 642.888184,5.222375 
	C628.445312,4.900985 613.893738,6.557329 599.494629,8.215865 
	C590.197205,9.286775 581.087097,11.983813 571.077454,13.980595 
	C548.318481,19.162544 526.640869,27.251015 505.332489,38.279320 
	C491.870178,46.819275 478.407837,55.359230 464.334259,64.201286 
	C456.510529,70.786621 448.686768,77.371956 440.279144,84.260094 
	C436.673340,87.852715 432.992249,91.374390 429.502991,95.076866 
	C428.299072,96.354340 427.572815,98.081978 426.633209,99.673607 
	C426.633209,99.673607 426.702759,99.667747 426.452454,99.047905 
z"/>
<path fill="#072446" opacity="1.000000" stroke="none" 
	d="
M978.098877,1513.978027 
	C985.095520,1527.380127 992.165405,1540.744751 999.065613,1554.196411 
	C1004.613281,1565.011353 1009.869690,1575.975952 1015.445129,1586.776245 
	C1016.980896,1589.751221 1016.744934,1591.732910 1014.379272,1594.232666 
	C1000.901123,1608.474487 987.540771,1622.829468 974.268250,1637.263672 
	C956.614990,1656.461792 939.014893,1675.709839 921.513489,1695.046631 
	C907.473328,1710.559692 893.464844,1726.106445 879.711060,1741.872681 
	C861.274292,1763.007446 842.844666,1784.157715 824.864441,1805.679321 
	C794.320862,1842.238770 763.448486,1878.556519 733.999756,1915.987305 
	C708.653381,1948.203979 684.996033,1981.755493 660.823486,2014.885742 
	C654.370483,2023.729858 648.773193,2033.197632 642.759705,2042.363892 
	C642.319031,2043.036011 641.688538,2043.583740 640.814636,2044.559448 
	C634.868774,2035.506836 629.431580,2026.449341 623.239807,2017.940918 
	C600.184265,1986.258301 577.376221,1954.375854 553.521301,1923.300781 
	C532.710571,1896.191040 510.817749,1869.900146 489.026001,1843.559326 
	C470.510040,1821.178101 451.568878,1799.144531 432.607941,1777.136353 
	C414.402740,1756.005493 396.029449,1735.017090 377.537476,1714.136475 
	C366.638550,1701.829834 355.390411,1689.831543 344.254700,1677.735474 
	C324.443054,1656.215454 304.583008,1634.739868 284.775665,1613.215698 
	C279.267334,1607.229736 274.149933,1600.854004 268.329254,1595.196045 
	C264.458160,1591.433105 265.177917,1588.219116 267.278076,1584.149536 
	C277.504364,1564.333862 287.628052,1544.464722 297.712250,1524.576172 
	C312.615540,1495.182861 327.434448,1465.746826 342.333984,1436.351562 
	C346.619110,1427.897583 351.230499,1419.603271 355.286774,1411.043579 
	C356.139343,1409.244507 355.973846,1406.169800 354.981171,1404.417114 
	C348.103027,1392.272949 340.874451,1380.327515 333.783539,1368.303345 
	C333.113922,1367.168091 332.617584,1365.930542 332.365967,1364.460205 
	C371.027100,1372.411011 409.352478,1380.692017 447.705353,1388.843384 
	C459.715363,1391.396118 471.799591,1393.599609 483.849854,1395.962891 
	C488.036957,1409.104736 492.224091,1422.246582 496.691010,1436.078125 
	C497.466125,1439.361206 497.708557,1442.034424 498.496277,1444.535889 
	C505.441101,1466.589233 512.549988,1488.590820 519.484741,1510.647339 
	C555.430115,1624.974487 586.554993,1740.578247 611.214905,1857.886108 
	C615.628662,1878.882690 619.801514,1899.930054 624.053162,1921.367432 
	C629.735718,1956.104736 635.450806,1990.428467 641.367249,2025.961426 
	C642.472290,2017.514404 643.180603,2010.136719 644.432861,2002.852417 
	C651.588135,1961.230347 658.189331,1919.496460 666.318298,1878.063354 
	C673.520874,1841.351807 682.054749,1804.883545 690.767273,1768.491333 
	C699.370178,1732.557617 708.479980,1696.730103 718.200562,1661.083252 
	C728.443481,1623.521362 739.434753,1586.157593 750.550537,1548.841797 
	C758.503540,1522.143555 767.200867,1495.666992 775.823975,1469.437866 
	C777.841980,1470.630615 779.520569,1471.813965 781.376892,1472.263306 
	C788.489319,1473.985474 795.650635,1475.510132 802.808533,1477.039429 
	C847.059204,1486.494873 891.306213,1495.967407 935.571594,1505.353760 
	C949.720703,1508.354126 963.921631,1511.110229 978.098877,1513.978027 
z"/>
<path fill="#3988EA" opacity="1.000000" stroke="none" 
	d="
M624.085693,1920.953979 
	C619.801514,1899.930054 615.628662,1878.882690 611.214905,1857.886108 
	C586.554993,1740.578247 555.430115,1624.974487 519.484741,1510.647339 
	C512.549988,1488.590820 505.441101,1466.589233 498.496277,1444.535889 
	C497.708557,1442.034424 497.466125,1439.361206 496.913269,1436.347046 
	C499.572449,1418.884644 502.218201,1401.831055 505.028534,1384.804810 
	C507.229218,1371.472412 509.791138,1358.198608 511.907104,1344.853638 
	C514.432922,1328.923462 516.547852,1312.928345 519.044189,1296.993286 
	C520.807922,1285.734131 523.013184,1274.544922 524.831909,1263.293823 
	C526.675537,1251.888916 528.200378,1240.432617 530.020142,1229.023682 
	C532.559326,1213.104004 535.275757,1197.212891 537.854858,1181.299438 
	C540.279114,1166.341553 542.483398,1151.346558 545.045471,1136.412598 
	C547.295898,1123.295166 549.907898,1110.239624 552.359863,1097.156738 
	C552.658691,1095.562012 552.954712,1093.966797 553.839111,1091.935547 
	C574.840515,1065.488281 594.458801,1038.797729 615.912842,1013.674683 
	C634.114014,992.360718 654.460999,972.881592 673.786682,952.522400 
	C676.266296,949.910156 678.001953,950.274292 680.289307,952.745178 
	C685.703308,958.593506 691.323547,964.251038 696.860352,969.985718 
	C700.906067,983.290344 705.287598,996.504272 708.911743,1009.922729 
	C713.355408,1026.375488 717.389404,1042.948242 721.187012,1059.563599 
	C725.053101,1076.478271 728.408752,1093.509521 732.011963,1110.484619 
	C732.406433,1112.342529 732.959839,1114.166748 733.566223,1116.492676 
	C739.833191,1114.635742 745.700623,1112.885254 751.575745,1111.160889 
	C755.667236,1109.960083 759.044617,1112.916748 759.924500,1119.145508 
	C761.456543,1129.990479 762.609070,1140.888550 764.025696,1151.750732 
	C764.530884,1155.624756 764.925781,1159.589600 766.088257,1163.287354 
	C769.769531,1174.997437 762.635315,1177.157104 753.897766,1178.961060 
	C750.715759,1179.618042 747.455566,1179.896851 744.376770,1180.327759 
	C746.264587,1192.822510 748.082214,1205.205200 750.018188,1217.569336 
	C752.059937,1230.608398 754.217041,1243.629395 756.319580,1256.659058 
	C758.215942,1268.411011 760.153137,1280.156738 761.984924,1291.918701 
	C763.388916,1300.934082 764.656799,1309.970581 765.756958,1319.685547 
	C761.589844,1331.682129 757.176636,1342.850830 753.793701,1354.323242 
	C738.300537,1406.864502 722.173767,1459.243652 708.002869,1512.144043 
	C686.539795,1592.265869 669.692505,1673.480835 654.144226,1754.941895 
	C645.968689,1797.775269 638.540405,1840.751465 630.782776,1883.664429 
	C628.536255,1896.091675 626.317261,1908.524048 624.085693,1920.953979 
M625.385559,1140.000000 
	C621.796204,1140.333496 618.180359,1140.493042 614.622986,1141.036011 
	C606.749329,1142.237671 598.830200,1143.301270 591.073364,1145.056519 
	C585.166443,1146.393188 582.859741,1149.879639 583.014404,1155.141968 
	C583.212952,1161.898438 585.289856,1165.060303 591.863098,1165.891479 
	C607.620422,1167.884521 623.415039,1169.811523 639.254456,1170.859375 
	C654.131042,1171.843628 669.083374,1171.734497 684.004517,1171.973999 
	C692.831726,1172.115601 701.672119,1172.241943 710.489319,1171.913330 
	C716.182861,1171.701172 721.922302,1171.023682 727.497559,1169.864136 
	C732.115356,1168.903809 736.594788,1166.333008 736.880981,1161.115356 
	C737.335083,1152.835938 737.353149,1144.441040 736.441345,1136.218506 
	C736.007935,1132.310059 733.002930,1128.666260 727.853210,1129.004639 
	C717.668640,1129.674072 707.452332,1130.053955 697.310608,1131.132202 
	C684.990601,1132.441895 672.743408,1134.422485 660.447327,1135.975464 
	C649.081116,1137.411255 637.691956,1138.665161 625.385559,1140.000000 
z"/>
<path fill="#072446" opacity="1.000000" stroke="none" 
	d="
M804.049072,543.083862 
	C796.919495,547.614441 790.028992,552.586853 782.617554,556.596375 
	C755.546875,571.240967 727.064026,582.252686 696.642212,587.486877 
	C683.920532,589.675720 670.987000,590.708313 658.118530,591.939880 
	C650.858154,592.634766 643.520264,593.133667 636.241272,592.916748 
	C597.689209,591.767700 560.462952,584.403198 524.906189,569.028564 
	C500.479492,558.466370 477.848053,544.945984 457.133698,528.357727 
	C435.497284,511.031036 416.731659,490.906403 400.728149,468.199677 
	C383.441193,443.671906 370.105438,417.162445 361.203339,388.569611 
	C357.270905,375.938995 354.983368,362.796234 352.319519,349.480774 
	C356.868134,350.683868 361.100616,352.164825 365.215698,353.920898 
	C394.461304,366.401215 423.689301,378.923004 452.910492,391.460388 
	C487.638702,406.360504 522.352234,421.294861 557.076416,436.204346 
	C593.178284,451.705383 629.286377,467.191925 665.389771,482.689484 
	C702.257202,498.514923 739.143127,514.297729 775.973938,530.207764 
	C785.423096,534.289612 794.695496,538.780762 804.049072,543.083862 
z"/>
<path fill="#1462C2" opacity="1.000000" stroke="none" 
	d="
M624.053162,1921.367432 
	C626.317261,1908.524048 628.536255,1896.091675 630.782776,1883.664429 
	C638.540405,1840.751465 645.968689,1797.775269 654.144226,1754.941895 
	C669.692505,1673.480835 686.539795,1592.265869 708.002869,1512.144043 
	C722.173767,1459.243652 738.300537,1406.864502 753.793701,1354.323242 
	C757.176636,1342.850830 761.589844,1331.682129 765.780273,1320.113647 
	C767.035217,1325.198120 768.105103,1330.531128 769.028076,1335.889282 
	C771.013123,1347.413940 772.997375,1358.939697 774.841675,1370.487427 
	C776.664673,1381.901611 778.257874,1393.352539 780.057983,1404.770508 
	C781.651001,1414.875366 783.389954,1424.957397 785.071106,1435.879272 
	C784.692383,1438.650269 784.471069,1440.641968 783.893555,1442.524170 
	C781.171204,1451.396240 778.351257,1460.238647 775.566162,1469.091553 
	C767.200867,1495.666992 758.503540,1522.143555 750.550537,1548.841797 
	C739.434753,1586.157593 728.443481,1623.521362 718.200562,1661.083252 
	C708.479980,1696.730103 699.370178,1732.557617 690.767273,1768.491333 
	C682.054749,1804.883545 673.520874,1841.351807 666.318298,1878.063354 
	C658.189331,1919.496460 651.588135,1961.230347 644.432861,2002.852417 
	C643.180603,2010.136719 642.472290,2017.514404 641.367249,2025.961426 
	C635.450806,1990.428467 629.735718,1956.104736 624.053162,1921.367432 
z"/>
<path fill="#135FBC" opacity="1.000000" stroke="none" 
	d="
M894.920349,150.994614 
	C905.192627,168.938126 913.622192,187.706360 920.076965,207.351700 
	C921.144592,210.601151 922.028809,213.910873 922.640808,217.585632 
	C920.053589,217.418091 917.702576,217.141830 915.611694,216.253464 
	C893.709717,206.947830 871.845825,197.552628 849.978455,188.165771 
	C810.679565,171.296204 771.390320,154.404068 732.087952,137.542572 
	C695.843445,121.993004 659.576904,106.494766 623.338623,90.930763 
	C585.571472,74.710144 547.816284,58.461670 510.106842,42.107681 
	C508.483246,41.403568 507.371674,39.518856 506.021576,38.184128 
	C526.640869,27.251015 548.318481,19.162544 571.820435,14.114092 
	C608.330566,29.622139 644.093140,45.007332 679.865845,60.368965 
	C745.755310,88.663467 811.635925,116.978615 877.570190,145.168381 
	C883.161804,147.559036 889.128113,149.073242 894.920349,150.994614 
z"/>
<path fill="#072446" opacity="1.000000" stroke="none" 
	d="
M321.175476,1397.910522 
	C324.092896,1400.805908 323.799103,1403.667480 322.009460,1407.281860 
	C310.639862,1430.244141 299.465515,1453.303589 288.318359,1476.375244 
	C275.729401,1502.430908 263.232330,1528.531128 250.705429,1554.616821 
	C247.538818,1561.210938 244.430740,1567.833008 241.248840,1574.419678 
	C240.547440,1575.871582 239.646866,1577.227295 238.238983,1579.664185 
	C235.132675,1574.521362 232.318710,1570.321167 229.960434,1565.878906 
	C219.664780,1546.486084 208.716492,1527.388306 199.463852,1507.504517 
	C183.334213,1472.842285 168.128281,1437.745605 152.851059,1402.693359 
	C147.142700,1389.596069 142.318253,1376.113647 137.238495,1362.162354 
	C139.073868,1361.303833 140.862701,1360.612183 142.434555,1360.944946 
	C194.992966,1372.075073 247.522385,1383.341919 300.081360,1394.469360 
	C307.043518,1395.943237 314.140808,1396.779053 321.175476,1397.910522 
z"/>
<path fill="#1559AB" opacity="1.000000" stroke="none" 
	d="
M505.677032,38.231720 
	C507.371674,39.518856 508.483246,41.403568 510.106842,42.107681 
	C547.816284,58.461670 585.571472,74.710144 623.338623,90.930763 
	C659.576904,106.494766 695.843445,121.993004 732.087952,137.542572 
	C771.390320,154.404068 810.679565,171.296204 849.978455,188.165771 
	C871.845825,197.552628 893.709717,206.947830 915.611694,216.253464 
	C917.702576,217.141830 920.053589,217.418091 922.695984,217.978516 
	C926.068909,231.946320 929.029724,245.914108 931.990234,259.881958 
	C932.292603,261.308807 932.593445,262.736023 932.483765,264.565735 
	C926.375732,262.703125 920.626953,260.559631 914.990662,258.152588 
	C880.852173,243.573212 846.730713,228.954208 812.620667,214.308502 
	C778.510742,199.662888 744.434326,184.939194 710.318726,170.306808 
	C671.766296,153.771484 633.172607,137.332382 594.622620,120.791512 
	C553.013489,102.938042 511.429169,85.026810 469.859070,67.082817 
	C468.092316,66.320198 466.577637,64.973686 464.945526,63.899185 
	C478.407837,55.359230 491.870178,46.819275 505.677032,38.231720 
z"/>
<path fill="#3988EA" opacity="1.000000" stroke="none" 
	d="
M577.129639,867.015198 
	C577.400208,853.333557 577.218750,839.451050 571.691284,826.849609 
	C565.780151,813.373291 558.288818,800.563293 551.056763,787.704590 
	C547.443848,781.280701 542.871460,775.396484 538.711060,769.235535 
	C567.079651,754.723145 703.235107,752.849426 743.466919,768.899048 
	C740.681091,773.098145 737.987854,777.227295 735.225220,781.309509 
	C723.735596,798.287598 713.210205,815.730530 707.618042,835.723206 
	C704.730103,846.048096 704.942383,856.563171 704.522095,867.623047 
	C702.088013,868.401123 700.109741,868.897644 698.139099,868.869263 
	C657.802124,868.287170 617.465942,867.645203 577.129639,867.015198 
z"/>
<path fill="#08284F" opacity="1.000000" stroke="none" 
	d="
M804.388245,543.002380 
	C794.695496,538.780762 785.423096,534.289612 775.973938,530.207764 
	C739.143127,514.297729 702.257202,498.514923 665.389771,482.689484 
	C629.286377,467.191925 593.178284,451.705383 557.076416,436.204346 
	C522.352234,421.294861 487.638702,406.360504 452.910492,391.460388 
	C423.689301,378.923004 394.461304,366.401215 365.215698,353.920898 
	C361.100616,352.164825 356.868134,350.683868 352.300140,349.051025 
	C350.626312,337.321991 349.342346,325.617493 348.468567,313.488495 
	C350.139771,313.473114 351.442413,313.785248 352.655670,314.305786 
	C377.120026,324.800476 401.568146,335.333099 426.031860,345.829285 
	C453.095306,357.440887 480.176910,369.009918 507.240082,380.622070 
	C541.794861,395.448669 576.336426,410.306000 610.888611,425.138672 
	C639.937622,437.608917 668.996643,450.055786 698.045837,462.525665 
	C735.044312,478.407990 772.049683,494.274475 809.023071,510.215057 
	C817.098328,513.696533 825.051147,517.461914 833.060364,521.096558 
	C823.616028,528.371338 814.171692,535.646118 804.388245,543.002380 
z"/>
<path fill="#0D3A70" opacity="1.000000" stroke="none" 
	d="
M357.932617,221.907928 
	C360.265503,214.386139 362.598358,206.864349 365.519775,199.120544 
	C377.018341,203.406952 387.979401,207.796463 398.829224,212.445450 
	C435.548645,228.179153 472.223480,244.017029 508.925262,259.791962 
	C548.226440,276.684113 587.536316,293.556000 626.847046,310.425842 
	C662.946472,325.917542 699.056274,341.385193 735.153992,356.880859 
	C774.462952,373.755096 813.748047,390.685028 853.074402,407.518433 
	C870.054932,414.786804 887.113098,421.873871 904.135986,429.043335 
	C899.952332,436.918884 895.768616,444.794434 891.112793,452.603699 
	C889.240479,451.684570 887.916077,450.658691 886.427734,450.007690 
	C878.345337,446.472595 870.219788,443.036438 862.114136,439.554565 
	C827.398193,424.641907 792.685303,409.721863 757.968628,394.810974 
	C731.203857,383.315399 704.434265,371.831024 677.668091,360.338776 
	C643.102417,345.497772 608.538513,330.652649 573.972839,315.811768 
	C547.206665,304.319611 520.443542,292.820099 493.670532,281.343750 
	C457.565430,265.867188 421.420654,250.482544 385.364014,234.893982 
	C376.083435,230.881668 367.069214,226.253296 357.932617,221.907928 
z"/>
<path fill="#0E407C" opacity="1.000000" stroke="none" 
	d="
M369.167511,187.992935 
	C372.553802,180.454300 375.940094,172.915665 379.989502,165.205948 
	C382.716522,165.667740 384.852875,166.128464 386.832672,166.961258 
	C400.185242,172.577972 413.523315,178.230194 426.831543,183.951233 
	C479.910400,206.769257 532.963318,229.647766 586.051270,252.444611 
	C641.586853,276.292511 697.157837,300.057922 752.701843,323.886139 
	C804.420349,346.073273 856.132874,368.274658 907.814270,390.548065 
	C911.373596,392.082062 914.651550,394.268951 918.060364,396.152161 
	C915.363953,403.195526 912.667603,410.238861 909.491577,417.625122 
	C907.424133,417.518341 905.763794,417.238251 904.259216,416.594147 
	C873.028870,403.223633 841.819397,389.804382 810.599182,376.410065 
	C766.677673,357.566498 722.740662,338.759369 678.829163,319.892456 
	C632.775330,300.105133 586.757507,280.234100 540.699219,260.457184 
	C489.744049,238.577606 438.773590,216.733536 387.773163,194.959717 
	C381.688843,192.362106 375.374969,190.302124 369.167511,187.992935 
z"/>
<path fill="#104587" opacity="1.000000" stroke="none" 
	d="
M387.118927,150.999557 
	C391.516937,144.113571 395.914978,137.227585 400.954315,130.232208 
	C427.477692,141.127060 453.388336,152.064697 479.235321,163.150787 
	C520.684265,180.928802 562.078369,198.834534 603.518860,216.632339 
	C654.286987,238.436142 705.090698,260.157288 755.857422,281.964355 
	C806.624573,303.771606 857.345459,325.686768 908.140808,347.427979 
	C914.977722,350.354309 922.131348,352.540558 929.138367,355.069489 
	C927.318237,363.228088 925.498108,371.386688 923.009583,379.757416 
	C920.129272,379.260681 917.841309,378.729065 915.717041,377.816406 
	C883.603088,364.019104 851.523315,350.142212 819.410034,336.343323 
	C775.522095,317.484863 731.610352,298.681824 687.712830,279.845551 
	C646.873596,262.321503 606.038879,244.786789 565.203674,227.253342 
	C525.745911,210.311356 486.298706,193.344864 446.829742,176.429001 
	C426.945679,167.906952 407.023743,159.473221 387.118927,150.999557 
z"/>
<path fill="#1565C8" opacity="1.000000" stroke="none" 
	d="
M894.885986,150.647186 
	C889.128113,149.073242 883.161804,147.559036 877.570190,145.168381 
	C811.635925,116.978615 745.755310,88.663467 679.865845,60.368965 
	C644.093140,45.007332 608.330566,29.622139 572.228210,14.099851 
	C581.087097,11.983813 590.197205,9.286775 599.494629,8.215865 
	C613.893738,6.557329 628.445312,4.900985 642.888184,5.222375 
	C671.940430,5.868857 700.561462,9.830378 728.519714,18.608217 
	C758.632812,28.062613 786.421265,41.910385 812.095215,60.024822 
	C828.862549,71.855095 844.262573,85.435692 858.012695,100.674644 
	C871.521973,115.646576 883.546997,131.814240 893.800293,149.237930 
	C894.045166,149.654007 894.496521,149.948532 894.885986,150.647186 
z"/>
<path fill="#092C56" opacity="1.000000" stroke="none" 
	d="
M483.862885,1395.714844 
	C471.799591,1393.599609 459.715363,1391.396118 447.705353,1388.843384 
	C409.352478,1380.692017 371.027100,1372.411011 332.296326,1364.108887 
	C327.105988,1356.294800 322.136627,1348.653198 317.547455,1340.789551 
	C303.733948,1317.119995 290.068542,1293.363892 276.663055,1269.320557 
	C278.299988,1269.161743 279.640503,1269.223999 280.935364,1269.500244 
	C333.859741,1280.792480 386.767578,1292.163086 439.719208,1303.325806 
	C445.296448,1304.501465 451.128723,1304.467285 456.842682,1304.994507 
	C465.547852,1334.380493 474.253021,1363.766357 483.112579,1393.726807 
	C483.440796,1394.543213 483.636017,1394.766235 483.852661,1394.970581 
	C483.852661,1394.970581 483.875916,1395.466919 483.862885,1395.714844 
z"/>
<path fill="#092C56" opacity="1.000000" stroke="none" 
	d="
M833.341064,520.913208 
	C825.051147,517.461914 817.098328,513.696533 809.023071,510.215057 
	C772.049683,494.274475 735.044312,478.407990 698.045837,462.525665 
	C668.996643,450.055786 639.937622,437.608917 610.888611,425.138672 
	C576.336426,410.306000 541.794861,395.448669 507.240082,380.622070 
	C480.176910,369.009918 453.095306,357.440887 426.031860,345.829285 
	C401.568146,335.333099 377.120026,324.800476 352.655670,314.305786 
	C351.442413,313.785248 350.139771,313.473114 348.513977,313.025452 
	C348.102936,303.933777 348.056641,294.880585 348.442932,285.445648 
	C349.522400,285.217438 350.208374,285.279785 350.810547,285.537689 
	C374.842987,295.830963 398.873474,306.128998 422.892517,316.453583 
	C459.608948,332.236206 496.306793,348.062012 533.031067,363.826355 
	C571.744873,380.444763 610.485901,396.999573 649.204712,413.606384 
	C683.790833,428.440643 718.339661,443.362152 752.947815,458.144836 
	C786.625977,472.530243 820.358582,486.788269 854.067261,501.102173 
	C847.252075,507.644745 840.436890,514.187317 833.341064,520.913208 
z"/>
<path fill="#1353A0" opacity="1.000000" stroke="none" 
	d="
M464.639893,64.050232 
	C466.577637,64.973686 468.092316,66.320198 469.859070,67.082817 
	C511.429169,85.026810 553.013489,102.938042 594.622620,120.791512 
	C633.172607,137.332382 671.766296,153.771484 710.318726,170.306808 
	C744.434326,184.939194 778.510742,199.662888 812.620667,214.308502 
	C846.730713,228.954208 880.852173,243.573212 914.990662,258.152588 
	C920.626953,260.559631 926.375732,262.703125 932.452759,264.977448 
	C933.538940,274.697144 934.244934,284.407837 934.528931,294.522034 
	C928.107178,292.467896 922.071777,290.093170 916.113281,287.539032 
	C881.371765,272.646698 846.650635,257.706940 811.918213,242.793442 
	C775.807739,227.288239 739.688599,211.803085 703.579956,196.293579 
	C669.307983,181.572968 635.052368,166.814255 600.775452,152.105042 
	C564.508850,136.541962 528.239319,120.985641 491.943787,105.490234 
	C474.949921,98.235146 457.891968,91.130264 440.863037,83.957291 
	C448.686768,77.371956 456.510529,70.786621 464.639893,64.050232 
z"/>
<path fill="#0B3364" opacity="1.000000" stroke="none" 
	d="
M349.166473,267.985046 
	C350.231476,260.168945 351.296448,252.352814 353.021790,244.267197 
	C355.578949,244.559174 357.546906,244.950974 359.360199,245.711517 
	C367.186523,248.994110 374.963104,252.395126 382.765808,255.734283 
	C423.613586,273.214935 464.479370,290.653564 505.308838,308.176910 
	C546.749634,325.962646 588.145691,343.852997 629.579346,361.655426 
	C673.459045,380.508759 717.357178,399.319214 761.252563,418.135986 
	C800.866150,435.117249 840.486938,452.081696 880.104553,469.053589 
	C875.259888,475.592133 870.415222,482.130646 865.032715,488.664642 
	C840.339783,478.277893 816.182861,467.899811 792.029968,457.512604 
	C755.339050,441.733307 718.657654,425.932068 681.959412,410.169800 
	C654.894348,398.545105 627.800171,386.988281 600.734741,375.364319 
	C564.188965,359.668671 527.666992,343.917572 491.118835,328.227539 
	C454.570618,312.537384 418.018280,296.856628 381.433716,281.251556 
	C370.737762,276.689240 359.925446,272.399628 349.166473,267.985046 
z"/>
<path fill="#1462C2" opacity="1.000000" stroke="none" 
	d="
M577.056274,867.462341 
	C617.465942,867.645203 657.802124,868.287170 698.139099,868.869263 
	C700.109741,868.897644 702.088013,868.401123 704.470154,868.091309 
	C705.360046,872.894531 705.842529,877.755554 706.371338,883.083679 
	C696.490295,890.743408 686.154602,898.675659 675.970520,906.797913 
	C675.130859,907.467590 674.714111,909.649963 675.120850,910.753845 
	C682.315063,930.279968 689.667725,949.747620 696.923218,969.606812 
	C691.323547,964.251038 685.703308,958.593506 680.289307,952.745178 
	C678.001953,950.274292 676.266296,949.910156 673.786682,952.522400 
	C654.460999,972.881592 634.114014,992.360718 615.912842,1013.674683 
	C594.458801,1038.797729 574.840515,1065.488281 554.165100,1091.698486 
	C555.922485,1081.853638 557.533081,1071.706543 560.038208,1061.785278 
	C566.800781,1035.002319 573.371094,1008.147705 581.125854,981.645752 
	C586.865845,962.029236 594.262146,942.892273 601.110596,923.609192 
	C602.631470,919.326904 605.096924,915.387329 606.806396,911.160156 
	C607.271362,910.010498 607.104614,907.714966 606.316345,907.083740 
	C596.117065,898.917847 585.752991,890.957825 575.753845,883.196716 
	C576.175537,877.951599 576.579224,872.930542 577.056274,867.462341 
z"/>
<path fill="#092C56" opacity="1.000000" stroke="none" 
	d="
M775.823975,1469.437866 
	C778.351257,1460.238647 781.171204,1451.396240 783.893555,1442.524170 
	C784.471069,1440.641968 784.692383,1438.650269 785.115417,1436.287354 
	C789.243164,1423.082275 793.333313,1410.299194 798.062622,1397.329956 
	C834.344116,1404.768677 869.974182,1412.451660 905.637268,1419.977783 
	C914.734192,1421.897583 923.935852,1423.321289 933.089355,1424.972900 
	C940.506470,1439.235718 948.036255,1453.441528 955.309814,1467.777100 
	C962.972351,1482.879272 970.390015,1498.105713 978.006836,1513.627930 
	C963.921631,1511.110229 949.720703,1508.354126 935.571594,1505.353760 
	C891.306213,1495.967407 847.059204,1486.494873 802.808533,1477.039429 
	C795.650635,1475.510132 788.489319,1473.985474 781.376892,1472.263306 
	C779.520569,1471.813965 777.841980,1470.630615 775.823975,1469.437866 
z"/>
<path fill="#0E3C76" opacity="1.000000" stroke="none" 
	d="
M385.834015,1050.990723 
	C388.073700,1059.033569 390.369293,1067.061279 392.538452,1075.123047 
	C395.052460,1084.466431 397.455353,1093.839600 399.441406,1103.597656 
	C396.668427,1103.755615 394.317566,1103.719849 392.059387,1103.244263 
	C373.016571,1099.232544 353.991913,1095.134644 334.959473,1091.073608 
	C285.670471,1080.556641 236.394623,1069.977051 187.079010,1059.586426 
	C176.531311,1057.364014 165.837524,1055.835083 155.211029,1053.986694 
	C145.154709,1035.235962 135.098389,1016.485229 125.388245,997.381592 
	C127.217827,997.205383 128.726151,997.265320 130.181076,997.575684 
	C203.468658,1013.206482 276.741241,1028.907959 350.045776,1044.458618 
	C361.903473,1046.973999 373.901062,1048.830078 385.834015,1050.990723 
z"/>
<path fill="#0D3A70" opacity="1.000000" stroke="none" 
	d="
M1032.796265,1221.987549 
	C1020.072876,1244.192017 1007.349426,1266.396606 993.948486,1288.803223 
	C992.445435,1288.900391 991.607361,1288.854492 990.796265,1288.682007 
	C943.567017,1278.635010 896.333435,1268.607910 849.127319,1258.453247 
	C845.954224,1257.770630 842.990417,1256.115112 839.929321,1254.911987 
	C844.902588,1236.986816 849.879761,1219.062744 854.846924,1201.135864 
	C856.385376,1195.583496 857.896851,1190.023560 859.958862,1184.446289 
	C863.160095,1185.283569 865.771912,1186.380371 868.493774,1186.964233 
	C908.145508,1195.468140 947.811462,1203.905640 987.475037,1212.354248 
	C1002.580688,1215.571777 1017.689087,1218.776855 1032.796265,1221.987549 
z"/>
<path fill="#11498E" opacity="1.000000" stroke="none" 
	d="
M1143.834351,1021.989380 
	C1134.976929,1038.423706 1126.118774,1054.857666 1117.265991,1071.294434 
	C1117.032104,1071.728760 1116.856689,1072.194702 1116.064819,1072.660400 
	C1113.497803,1071.841675 1111.593262,1070.667603 1109.531616,1070.225098 
	C1069.694946,1061.676147 1029.838623,1053.218994 989.989136,1044.729980 
	C960.712524,1038.493408 931.439758,1032.238525 902.165283,1025.991821 
	C906.560425,1008.462219 910.955444,990.932617 915.975830,973.367859 
	C992.345581,989.551636 1068.089966,1005.770508 1143.834351,1021.989380 
z"/>
<path fill="#104587" opacity="1.000000" stroke="none" 
	d="
M902.067383,1026.376953 
	C931.439758,1032.238525 960.712524,1038.493408 989.989136,1044.729980 
	C1029.838623,1053.218994 1069.694946,1061.676147 1109.531616,1070.225098 
	C1111.593262,1070.667603 1113.497803,1071.841675 1115.787842,1072.865967 
	C1110.475586,1083.453735 1104.894043,1093.874146 1099.211426,1104.239136 
	C1095.439453,1111.119263 1091.522827,1117.920288 1087.051758,1124.710815 
	C1085.172119,1124.250122 1083.937622,1123.714600 1082.647461,1123.438232 
	C1035.140259,1113.256470 987.631165,1103.082764 940.114258,1092.945923 
	C922.716797,1089.234741 905.299011,1085.618652 887.890503,1081.958984 
	C890.496765,1071.468994 893.059937,1060.968140 895.723450,1050.492676 
	C897.739136,1042.565552 899.882812,1034.671143 902.067383,1026.376953 
z"/>
<path fill="#0B3364" opacity="1.000000" stroke="none" 
	d="
M1157.084351,1330.038452 
	C1147.257080,1355.552490 1137.429932,1381.066406 1126.986572,1406.662476 
	C1124.930298,1406.336792 1123.508179,1405.845337 1122.047729,1405.533936 
	C1085.265381,1397.687500 1048.503784,1389.740601 1011.679077,1382.098511 
	C999.829407,1379.639404 987.811157,1377.992554 975.870117,1375.974243 
	C991.513550,1351.837891 1007.157043,1327.701538 1023.393433,1303.279785 
	C1025.467896,1303.197510 1026.969238,1303.307373 1028.428101,1303.616821 
	C1059.711792,1310.252686 1090.974609,1316.988892 1122.279419,1323.523438 
	C1133.831055,1325.934814 1145.479858,1327.880493 1157.084351,1330.038452 
z"/>
<path fill="#0C3669" opacity="1.000000" stroke="none" 
	d="
M880.387268,468.874390 
	C840.486938,452.081696 800.866150,435.117249 761.252563,418.135986 
	C717.357178,399.319214 673.459045,380.508759 629.579346,361.655426 
	C588.145691,343.852997 546.749634,325.962646 505.308838,308.176910 
	C464.479370,290.653564 423.613586,273.214935 382.765808,255.734283 
	C374.963104,252.395126 367.186523,248.994110 359.360199,245.711517 
	C357.546906,244.950974 355.578949,244.559174 353.282104,243.979721 
	C354.384888,236.788467 355.887756,229.615204 357.661621,222.174927 
	C367.069214,226.253296 376.083435,230.881668 385.364014,234.893982 
	C421.420654,250.482544 457.565430,265.867188 493.670532,281.343750 
	C520.443542,292.820099 547.206665,304.319611 573.972839,315.811768 
	C608.538513,330.652649 643.102417,345.497772 677.668091,360.338776 
	C704.434265,371.831024 731.203857,383.315399 757.968628,394.810974 
	C792.685303,409.721863 827.398193,424.641907 862.114136,439.554565 
	C870.219788,443.036438 878.345337,446.472595 886.427734,450.007690 
	C887.916077,450.658691 889.240479,451.684570 890.845093,452.825134 
	C887.589722,458.306976 884.129883,463.501099 880.387268,468.874390 
z"/>
<path fill="#0B3364" opacity="1.000000" stroke="none" 
	d="
M839.661499,1255.175293 
	C842.990417,1256.115112 845.954224,1257.770630 849.127319,1258.453247 
	C896.333435,1268.607910 943.567017,1278.635010 990.796265,1288.682007 
	C991.607361,1288.854492 992.445435,1288.900391 993.691162,1289.027832 
	C985.742554,1303.528809 977.400024,1318.022827 968.994995,1332.480469 
	C963.916504,1341.215942 958.740967,1349.895020 952.917053,1358.811035 
	C944.873169,1357.663818 937.486694,1356.467896 930.175049,1354.919189 
	C892.732727,1346.988281 855.309692,1338.966431 817.879883,1330.976196 
	C820.906860,1320.203125 823.900330,1309.420532 826.969177,1298.659302 
	C831.080139,1284.243652 835.249512,1269.844604 839.661499,1255.175293 
z"/>
<path fill="#11498E" opacity="1.000000" stroke="none" 
	d="
M175.880005,878.970520 
	C180.017807,873.718384 184.051804,868.380371 188.313370,863.230713 
	C199.912781,849.214172 211.612991,835.281067 223.262985,821.306335 
	C226.621735,817.277405 229.945480,813.219238 234.024658,809.043396 
	C236.746552,809.088074 238.770828,809.064697 240.705078,809.470398 
	C260.863647,813.698486 280.997894,818.042480 301.159760,822.254578 
	C312.364685,824.595398 323.608948,826.747803 334.835480,828.985229 
	C340.219391,855.623901 345.605438,882.262207 350.982452,908.902283 
	C351.335388,910.650818 351.619415,912.413330 351.449036,914.581909 
	C348.643433,914.828125 346.266510,914.933777 344.013702,914.455139 
	C302.312775,905.594727 260.633911,896.630249 218.933334,887.767944 
	C204.606125,884.723083 190.232468,881.896667 175.880005,878.970520 
z"/>
<path fill="#1353A0" opacity="1.000000" stroke="none" 
	d="
M1089.833862,858.987671 
	C1108.551636,881.161133 1127.279541,903.326172 1145.973389,925.519836 
	C1148.077271,928.017578 1149.989502,930.676819 1151.703369,933.747803 
	C1148.644653,933.998047 1145.811401,934.052979 1143.110718,933.481506 
	C1102.284424,924.842224 1061.466064,916.164368 1020.665649,907.403381 
	C992.386780,901.331177 964.138062,895.118042 935.875916,888.967834 
	C938.040649,877.734070 940.245361,866.507874 942.356750,855.264099 
	C943.891602,847.091003 945.303223,838.894714 947.394165,830.350830 
	C950.164917,830.205322 952.354370,830.214478 954.450867,830.660522 
	C987.183838,837.624207 1019.893494,844.698120 1052.634521,851.623718 
	C1065.000244,854.239380 1077.432129,856.542236 1089.833862,858.987671 
z"/>
<path fill="#0D3A70" opacity="1.000000" stroke="none" 
	d="
M155.307709,1054.309448 
	C165.837524,1055.835083 176.531311,1057.364014 187.079010,1059.586426 
	C236.394623,1069.977051 285.670471,1080.556641 334.959473,1091.073608 
	C353.991913,1095.134644 373.016571,1099.232544 392.059387,1103.244263 
	C394.317566,1103.719849 396.668427,1103.755615 399.402954,1103.994873 
	C402.871887,1114.553711 405.930573,1125.108398 408.949860,1135.674316 
	C410.618774,1141.514771 412.221527,1147.374146 413.408905,1153.608521 
	C410.323395,1153.752930 407.626434,1153.780884 405.050995,1153.235352 
	C342.740906,1140.038940 280.449463,1126.754639 218.139145,1113.559204 
	C207.093491,1111.220215 195.979004,1109.206299 184.896332,1107.042114 
	C180.290634,1099.095093 175.599426,1091.196045 171.101410,1083.188477 
	C165.782013,1073.718628 160.629333,1064.155151 155.307709,1054.309448 
z"/>
<path fill="#0E407C" opacity="1.000000" stroke="none" 
	d="
M385.874603,1050.598877 
	C373.901062,1048.830078 361.903473,1046.973999 350.045776,1044.458618 
	C276.741241,1028.907959 203.468658,1013.206482 130.181076,997.575684 
	C128.726151,997.265320 127.217827,997.205383 125.306847,997.032715 
	C119.144814,986.108215 113.261307,975.252441 107.840714,964.170349 
	C107.051155,962.556152 107.978928,959.590942 108.993896,957.732483 
	C110.306053,955.329895 112.504944,953.411682 114.926407,951.307617 
	C124.048851,953.470337 132.513123,955.859253 141.093292,957.711243 
	C218.995239,974.525269 296.917419,991.245605 374.833649,1007.993347 
	C378.527496,1022.064636 382.221344,1036.135864 385.874603,1050.598877 
z"/>
<path fill="#11498E" opacity="1.000000" stroke="none" 
	d="
M929.435913,354.799866 
	C922.131348,352.540558 914.977722,350.354309 908.140808,347.427979 
	C857.345459,325.686768 806.624573,303.771606 755.857422,281.964355 
	C705.090698,260.157288 654.286987,238.436142 603.518860,216.632339 
	C562.078369,198.834534 520.684265,180.928802 479.235321,163.150787 
	C453.388336,152.064697 427.477692,141.127060 401.229797,130.036926 
	C405.023438,124.374367 409.182861,118.797684 413.888794,113.305618 
	C415.838074,114.270508 417.153290,115.353958 418.656372,116.001228 
	C453.365143,130.948318 488.093964,145.848755 522.819763,160.756256 
	C562.133545,177.633331 601.446472,194.512436 640.762573,211.384064 
	C676.867004,226.877426 712.978333,242.354568 749.080811,257.852448 
	C788.394897,274.729034 827.687561,291.655548 867.018372,308.493103 
	C888.593567,317.729462 910.228210,326.827179 931.835938,335.987427 
	C931.135132,342.168365 930.434326,348.349274 929.435913,354.799866 
z"/>
<path fill="#0A2F5D" opacity="1.000000" stroke="none" 
	d="
M975.615601,1376.187378 
	C987.811157,1377.992554 999.829407,1379.639404 1011.679077,1382.098511 
	C1048.503784,1389.740601 1085.265381,1397.687500 1122.047729,1405.533936 
	C1123.508179,1405.845337 1124.930298,1406.336792 1126.726685,1406.898315 
	C1124.409180,1413.783569 1121.913086,1420.592285 1119.025635,1427.230835 
	C1112.177246,1442.976929 1105.143433,1458.642212 1097.588379,1474.660278 
	C1095.008911,1474.821655 1092.979858,1474.879517 1091.049316,1474.471558 
	C1067.946533,1469.590210 1044.874634,1464.561401 1021.760010,1459.737427 
	C1008.592285,1456.989136 995.361023,1454.545410 982.158325,1451.964722 
	C974.464417,1436.384888 966.659973,1420.857300 959.237305,1405.149292 
	C958.441589,1403.465454 959.243591,1400.334229 960.374023,1398.553101 
	C965.149109,1391.028931 970.329102,1383.761719 975.615601,1376.187378 
z"/>
<path fill="#13509A" opacity="1.000000" stroke="none" 
	d="
M440.571106,84.108704 
	C457.891968,91.130264 474.949921,98.235146 491.943787,105.490234 
	C528.239319,120.985641 564.508850,136.541962 600.775452,152.105042 
	C635.052368,166.814255 669.307983,181.572968 703.579956,196.293579 
	C739.688599,211.803085 775.807739,227.288239 811.918213,242.793442 
	C846.650635,257.706940 881.371765,272.646698 916.113281,287.539032 
	C922.071777,290.093170 928.107178,292.467896 934.471558,294.958374 
	C934.540405,301.723877 934.244751,308.456512 933.525757,315.557129 
	C918.368469,309.767303 903.591797,303.709564 888.909119,297.431793 
	C854.320129,282.642822 819.780518,267.738312 785.212463,252.900421 
	C749.114014,237.405624 713.001221,221.944275 676.902771,206.449478 
	C642.334656,191.611542 607.781616,176.738785 573.213501,161.900848 
	C537.115112,146.406052 501.023865,130.894180 464.893219,115.474785 
	C452.193542,110.054985 439.386414,104.886963 426.628357,99.603981 
	C427.572815,98.081978 428.299072,96.354340 429.502991,95.076866 
	C432.992249,91.374390 436.673340,87.852715 440.571106,84.108704 
z"/>
<path fill="#0D3A70" opacity="1.000000" stroke="none" 
	d="
M1157.338379,1329.776611 
	C1145.479858,1327.880493 1133.831055,1325.934814 1122.279419,1323.523438 
	C1090.974609,1316.988892 1059.711792,1310.252686 1028.428101,1303.616821 
	C1026.969238,1303.307373 1025.467896,1303.197510 1023.577148,1302.985474 
	C1029.643921,1292.262817 1036.131104,1281.555908 1042.593628,1270.834106 
	C1051.522705,1256.019775 1060.433350,1241.194336 1070.009033,1226.254272 
	C1104.731567,1233.442139 1138.782593,1240.818604 1172.883911,1247.954590 
	C1176.485596,1248.708374 1180.383179,1248.048584 1184.143433,1248.044556 
	C1177.913086,1267.720459 1171.744385,1287.416260 1165.421021,1307.062134 
	C1162.993286,1314.604736 1160.212524,1322.033813 1157.338379,1329.776611 
z"/>
<path fill="#0E407C" opacity="1.000000" stroke="none" 
	d="
M1184.412354,1247.786865 
	C1180.383179,1248.048584 1176.485596,1248.708374 1172.883911,1247.954590 
	C1138.782593,1240.818604 1104.731567,1233.442139 1070.277832,1226.049927 
	C1077.678955,1212.186035 1085.531616,1198.442139 1093.242310,1184.619263 
	C1102.883179,1167.336792 1112.403442,1149.986938 1121.999023,1132.679199 
	C1122.305908,1132.125610 1122.868652,1131.713989 1123.947510,1131.284912 
	C1145.657471,1135.903198 1166.759399,1140.351807 1187.791382,1145.108887 
	C1194.987183,1146.736328 1202.007935,1149.136963 1209.108643,1151.184326 
	C1206.273560,1163.383911 1203.663208,1175.640991 1200.552490,1187.769775 
	C1195.432373,1207.733276 1189.988525,1227.613770 1184.412354,1247.786865 
z"/>
<path fill="#0F4280" opacity="1.000000" stroke="none" 
	d="
M887.607727,1082.199951 
	C905.299011,1085.618652 922.716797,1089.234741 940.114258,1092.945923 
	C987.631165,1103.082764 1035.140259,1113.256470 1082.647461,1123.438232 
	C1083.937622,1123.714600 1085.172119,1124.250122 1086.743042,1124.879883 
	C1081.415649,1135.479980 1075.823853,1145.890381 1070.122437,1156.240356 
	C1066.788086,1162.293457 1063.279175,1168.250244 1059.380615,1174.211670 
	C1055.529053,1172.932251 1052.237183,1171.265259 1048.748169,1170.515137 
	C1001.404419,1160.336060 954.042603,1150.240356 906.662048,1140.234253 
	C895.773132,1137.934692 884.796509,1136.050903 873.860229,1133.975708 
	C876.809021,1122.512329 879.736938,1111.043579 882.715210,1099.587769 
	C884.204407,1093.859863 885.785461,1088.155762 887.607727,1082.199951 
z"/>
<path fill="#124D95" opacity="1.000000" stroke="none" 
	d="
M426.630798,99.638794 
	C439.386414,104.886963 452.193542,110.054985 464.893219,115.474785 
	C501.023865,130.894180 537.115112,146.406052 573.213501,161.900848 
	C607.781616,176.738785 642.334656,191.611542 676.902771,206.449478 
	C713.001221,221.944275 749.114014,237.405624 785.212463,252.900421 
	C819.780518,267.738312 854.320129,282.642822 888.909119,297.431793 
	C903.591797,303.709564 918.368469,309.767303 933.468872,315.958923 
	C933.302979,322.412628 932.770691,328.832428 932.037231,335.619873 
	C910.228210,326.827179 888.593567,317.729462 867.018372,308.493103 
	C827.687561,291.655548 788.394897,274.729034 749.080811,257.852448 
	C712.978333,242.354568 676.867004,226.877426 640.762573,211.384064 
	C601.446472,194.512436 562.133545,177.633331 522.819763,160.756256 
	C488.093964,145.848755 453.365143,130.948318 418.656372,116.001228 
	C417.153290,115.353958 415.838074,114.270508 414.189331,113.143265 
	C417.373505,108.677925 420.803680,104.459564 425.003174,100.036072 
	C426.082550,99.776543 426.392670,99.722145 426.702759,99.667747 
	C426.702759,99.667747 426.633209,99.673607 426.630798,99.638794 
z"/>
<path fill="#13509A" opacity="1.000000" stroke="none" 
	d="
M935.575134,889.208496 
	C964.138062,895.118042 992.386780,901.331177 1020.665649,907.403381 
	C1061.466064,916.164368 1102.284424,924.842224 1143.110718,933.481506 
	C1145.811401,934.052979 1148.644653,933.998047 1151.762939,934.094116 
	C1159.308716,942.356567 1166.638306,950.654663 1173.568970,959.273376 
	C1174.626221,960.588135 1174.567505,963.727295 1173.769287,965.435974 
	C1171.219604,970.892944 1168.078613,976.073547 1164.609375,981.638550 
	C1116.330933,971.768433 1068.601196,961.659241 1020.890625,951.459351 
	C989.301575,944.706055 957.740295,937.822693 926.166626,930.997498 
	C928.525024,920.170837 930.879517,909.343323 933.244385,898.518066 
	C933.905518,895.491699 934.596924,892.471924 935.575134,889.208496 
z"/>
<path fill="#124D95" opacity="1.000000" stroke="none" 
	d="
M925.982788,931.343018 
	C957.740295,937.822693 989.301575,944.706055 1020.890625,951.459351 
	C1068.601196,961.659241 1116.330933,971.768433 1164.443115,981.954102 
	C1157.944092,995.115051 1151.054688,1008.238159 1143.999756,1021.675293 
	C1068.089966,1005.770508 992.345581,989.551636 916.273071,973.123108 
	C918.375000,962.457153 920.784790,951.996094 923.247131,941.547424 
	C924.025574,938.244141 924.944458,934.973938 925.982788,931.343018 
z"/>
<path fill="#104587" opacity="1.000000" stroke="none" 
	d="
M175.586243,879.122681 
	C190.232468,881.896667 204.606125,884.723083 218.933334,887.767944 
	C260.633911,896.630249 302.312775,905.594727 344.013702,914.455139 
	C346.266510,914.933777 348.643433,914.828125 351.395935,914.993164 
	C353.908539,923.202393 356.050629,931.397827 358.050873,939.627686 
	C360.439575,949.455933 362.706848,959.313782 364.669983,969.538208 
	C344.293427,965.598328 324.280121,961.248352 304.252289,956.966492 
	C264.682922,948.506714 225.110153,940.062622 185.529037,931.657959 
	C170.062393,928.373779 154.569550,925.212891 139.088654,921.995850 
	C151.156586,907.755493 163.224533,893.515198 175.586243,879.122681 
z"/>
<path fill="#0A2F5D" opacity="1.000000" stroke="none" 
	d="
M94.163940,1234.983521 
	C89.459602,1217.473022 84.634552,1199.993896 80.095398,1182.440674 
	C77.290192,1171.592896 74.920143,1160.632568 72.684753,1149.355225 
	C75.321472,1149.232056 77.669662,1149.278687 79.928467,1149.751953 
	C101.732422,1154.319214 123.500679,1159.058838 145.322968,1163.535522 
	C156.858231,1165.901978 168.480103,1167.846436 180.062866,1169.981445 
	C189.538620,1186.311890 198.983917,1202.660156 208.499268,1218.967407 
	C216.936646,1233.427124 225.451920,1247.841431 233.677582,1262.742920 
	C231.453461,1263.086914 229.432556,1263.208984 227.523422,1262.804199 
	C194.966171,1255.898438 162.434097,1248.873779 129.870300,1241.999390 
	C118.003342,1239.494263 106.068062,1237.312744 94.163940,1234.983521 
z"/>
<path fill="#1559AB" opacity="1.000000" stroke="none" 
	d="
M1089.769775,858.663452 
	C1077.432129,856.542236 1065.000244,854.239380 1052.634521,851.623718 
	C1019.893494,844.698120 987.183838,837.624207 954.450867,830.660522 
	C952.354370,830.214478 950.164917,830.205322 947.593262,829.990356 
	C948.303467,807.649109 941.154358,786.652954 936.509949,765.276611 
	C931.728760,743.271423 926.407227,721.383667 920.996399,698.039246 
	C926.984741,702.700989 932.112854,706.590576 937.130432,710.617981 
	C954.065735,724.210938 970.965637,737.847961 987.871399,751.477600 
	C1000.167358,761.390747 1012.820801,770.904602 1024.593750,781.405029 
	C1031.047607,787.161377 1036.048462,794.559082 1041.628784,801.279663 
	C1049.196289,810.393921 1056.605591,819.640808 1064.240356,828.697876 
	C1072.635620,838.656982 1081.209473,848.465332 1089.769775,858.663452 
z"/>
<path fill="#0B3364" opacity="1.000000" stroke="none" 
	d="
M244.900635,1214.045898 
	C234.345078,1195.587280 223.789490,1177.128784 213.525711,1158.347900 
	C216.623978,1158.277222 219.488159,1158.252563 222.227539,1158.825195 
	C239.816895,1162.501099 257.376831,1166.317505 274.950287,1170.069580 
	C314.491425,1178.512085 354.027893,1186.976685 393.581787,1195.359131 
	C404.636414,1197.701782 415.745483,1199.787720 426.829590,1201.991455 
	C430.520782,1214.460327 434.251282,1226.917725 437.883575,1239.403931 
	C439.309814,1244.306519 440.516327,1249.272949 441.485443,1254.495605 
	C438.645752,1253.917969 436.201782,1252.783813 433.632751,1252.232056 
	C376.274963,1239.913452 318.915253,1227.602661 261.515015,1215.484253 
	C256.116302,1214.344482 250.445236,1214.494629 244.900635,1214.045898 
z"/>
<path fill="#0C3669" opacity="1.000000" stroke="none" 
	d="
M426.864014,1201.600952 
	C415.745483,1199.787720 404.636414,1197.701782 393.581787,1195.359131 
	C354.027893,1186.976685 314.491425,1178.512085 274.950287,1170.069580 
	C257.376831,1166.317505 239.816895,1162.501099 222.227539,1158.825195 
	C219.488159,1158.252563 216.623978,1158.277222 213.367004,1158.037354 
	C203.621674,1141.283569 194.326828,1124.517944 184.964142,1107.397217 
	C195.979004,1109.206299 207.093491,1111.220215 218.139145,1113.559204 
	C280.449463,1126.754639 342.740906,1140.038940 405.050995,1153.235352 
	C407.626434,1153.780884 410.323395,1153.752930 413.396210,1153.989502 
	C418.185272,1169.728149 422.541840,1185.469238 426.864014,1201.600952 
z"/>
<path fill="#0E3C76" opacity="1.000000" stroke="none" 
	d="
M873.586304,1134.221436 
	C884.796509,1136.050903 895.773132,1137.934692 906.662048,1140.234253 
	C954.042603,1150.240356 1001.404419,1160.336060 1048.748169,1170.515137 
	C1052.237183,1171.265259 1055.529053,1172.932251 1059.174316,1174.510986 
	C1051.685303,1188.657593 1043.938843,1202.468628 1036.178589,1216.271973 
	C1035.209717,1217.995239 1034.167480,1219.677490 1032.977783,1221.683105 
	C1017.689087,1218.776855 1002.580688,1215.571777 987.475037,1212.354248 
	C947.811462,1203.905640 908.145508,1195.468140 868.493774,1186.964233 
	C865.771912,1186.380371 863.160095,1185.283569 860.225525,1184.178223 
	C864.406799,1167.443115 868.859619,1150.955200 873.586304,1134.221436 
z"/>
<path fill="#08284F" opacity="1.000000" stroke="none" 
	d="
M320.965332,1397.642090 
	C314.140808,1396.779053 307.043518,1395.943237 300.081360,1394.469360 
	C247.522385,1383.341919 194.992966,1372.075073 142.434555,1360.944946 
	C140.862701,1360.612183 139.073868,1361.303833 137.171631,1361.796631 
	C129.635635,1341.983154 122.314186,1321.890991 115.368721,1301.417480 
	C116.242203,1301.072754 116.752144,1301.051025 117.235420,1301.154053 
	C168.450211,1312.086426 219.658920,1323.047241 270.889404,1333.905396 
	C273.177277,1334.390259 275.662354,1333.944580 278.055603,1333.932251 
	C284.345459,1343.252441 290.645386,1352.565674 296.922699,1361.894409 
	C304.876434,1373.714355 312.811859,1385.546631 320.965332,1397.642090 
z"/>
<path fill="#092C56" opacity="1.000000" stroke="none" 
	d="
M277.976654,1333.592285 
	C275.662354,1333.944580 273.177277,1334.390259 270.889404,1333.905396 
	C219.658920,1323.047241 168.450211,1312.086426 117.235420,1301.154053 
	C116.752144,1301.051025 116.242203,1301.072754 115.327866,1301.031006 
	C108.952919,1282.780029 102.968613,1264.542725 97.059738,1246.281250 
	C95.940437,1242.822021 95.120247,1239.266113 94.162979,1235.369141 
	C106.068062,1237.312744 118.003342,1239.494263 129.870300,1241.999390 
	C162.434097,1248.873779 194.966171,1255.898438 227.523422,1262.804199 
	C229.432556,1263.208984 231.453461,1263.086914 233.761322,1263.085938 
	C244.555359,1279.623291 255.031189,1296.271851 265.455383,1312.952515 
	C269.661133,1319.682617 273.753632,1326.483521 277.976654,1333.592285 
z"/>
<path fill="#11498E" opacity="1.000000" stroke="none" 
	d="
M1209.430664,1150.943970 
	C1202.007935,1149.136963 1194.987183,1146.736328 1187.791382,1145.108887 
	C1166.759399,1140.351807 1145.657471,1135.903198 1124.262695,1131.127686 
	C1130.020996,1119.065186 1136.052612,1107.184204 1142.189941,1095.358154 
	C1150.703125,1078.954102 1159.378296,1062.633911 1167.829468,1046.198120 
	C1175.271973,1031.724243 1182.502075,1017.141052 1190.359131,1002.383240 
	C1203.637695,1005.085388 1216.402100,1007.932678 1229.110229,1011.012146 
	C1231.212891,1011.521729 1233.069824,1013.046204 1235.040283,1014.101685 
	C1233.619507,1023.865784 1232.486450,1033.682251 1230.720093,1043.383423 
	C1226.633667,1065.827026 1222.306030,1088.227539 1217.945557,1110.620117 
	C1215.684204,1122.233765 1213.139648,1133.792358 1210.736816,1145.378540 
	C1210.370361,1147.145630 1210.078735,1148.928223 1209.430664,1150.943970 
z"/>
<path fill="#0A2F5D" opacity="1.000000" stroke="none" 
	d="
M244.977570,1214.394287 
	C250.445236,1214.494629 256.116302,1214.344482 261.515015,1215.484253 
	C318.915253,1227.602661 376.274963,1239.913452 433.632751,1252.232056 
	C436.201782,1252.783813 438.645752,1253.917969 441.489288,1254.880859 
	C445.548340,1267.301514 449.272186,1279.620239 452.980377,1291.943726 
	C454.217072,1296.053589 455.413574,1300.175537 456.735565,1304.643311 
	C451.128723,1304.467285 445.296448,1304.501465 439.719208,1303.325806 
	C386.767578,1292.163086 333.859741,1280.792480 280.935364,1269.500244 
	C279.640503,1269.223999 278.299988,1269.161743 276.571655,1268.991699 
	C265.793182,1250.903442 255.423843,1232.822998 244.977570,1214.394287 
z"/>
<path fill="#104587" opacity="1.000000" stroke="none" 
	d="
M34.873276,929.062012 
	C33.956291,922.922668 32.840389,916.805237 32.163330,910.639526 
	C30.707882,897.385437 29.478493,884.106567 28.128645,870.557495 
	C85.102768,850.585205 142.066757,830.616516 199.030746,810.647827 
	C199.293747,811.026611 199.556747,811.405457 199.819748,811.784302 
	C196.961380,815.283630 194.216553,818.883545 191.223175,822.263245 
	C182.580704,832.021423 173.775635,841.635742 165.150269,851.408752 
	C153.790024,864.280518 142.577835,877.282898 131.230225,890.165894 
	C122.813011,899.721863 114.248116,909.147766 105.811745,918.687073 
	C99.356102,925.986755 92.998543,933.373230 86.061523,940.671692 
	C84.035614,939.933594 82.610985,938.934631 81.045265,938.604309 
	C65.668045,935.359802 50.267326,932.226685 34.873276,929.062012 
z"/>
<path fill="#0A2F5D" opacity="1.000000" stroke="none" 
	d="
M817.626099,1331.236694 
	C855.309692,1338.966431 892.732727,1346.988281 930.175049,1354.919189 
	C937.486694,1356.467896 944.873169,1357.663818 952.663757,1359.032959 
	C953.063721,1359.216187 953.025024,1359.388916 952.763184,1359.980225 
	C952.344482,1360.628174 952.170166,1360.873047 952.017090,1361.133057 
	C943.663757,1375.268555 935.391968,1389.453491 926.887817,1403.497559 
	C925.205261,1406.276123 925.024292,1408.475830 926.571472,1411.294800 
	C928.885925,1415.511597 930.827576,1419.933105 933.008606,1424.620117 
	C923.935852,1423.321289 914.734192,1421.897583 905.637268,1419.977783 
	C869.974182,1412.451660 834.344116,1404.768677 798.309570,1397.057617 
	C802.388794,1381.776978 806.843323,1366.577393 811.339539,1351.390259 
	C813.306519,1344.746216 815.358826,1338.127441 817.626099,1331.236694 
z"/>
<path fill="#0A2F5D" opacity="1.000000" stroke="none" 
	d="
M349.107117,268.410339 
	C359.925446,272.399628 370.737762,276.689240 381.433716,281.251556 
	C418.018280,296.856628 454.570618,312.537384 491.118835,328.227539 
	C527.666992,343.917572 564.188965,359.668671 600.734741,375.364319 
	C627.800171,386.988281 654.894348,398.545105 681.959412,410.169800 
	C718.657654,425.932068 755.339050,441.733307 792.029968,457.512604 
	C816.182861,467.899811 840.339783,478.277893 864.775024,488.882019 
	C861.580139,492.982513 858.105164,496.861084 854.348694,500.920929 
	C820.358582,486.788269 786.625977,472.530243 752.947815,458.144836 
	C718.339661,443.362152 683.790833,428.440643 649.204712,413.606384 
	C610.485901,396.999573 571.744873,380.444763 533.031067,363.826355 
	C496.306793,348.062012 459.608948,332.236206 422.892517,316.453583 
	C398.873474,306.128998 374.842987,295.830963 350.810547,285.537689 
	C350.208374,285.279785 349.522400,285.217438 348.512299,285.026245 
	C348.448639,279.604279 348.748169,274.219971 349.107117,268.410339 
z"/>
<path fill="#0F4280" opacity="1.000000" stroke="none" 
	d="
M386.958252,151.313416 
	C407.023743,159.473221 426.945679,167.906952 446.829742,176.429001 
	C486.298706,193.344864 525.745911,210.311356 565.203674,227.253342 
	C606.038879,244.786789 646.873596,262.321503 687.712830,279.845551 
	C731.610352,298.681824 775.522095,317.484863 819.410034,336.343323 
	C851.523315,350.142212 883.603088,364.019104 915.717041,377.816406 
	C917.841309,378.729065 920.129272,379.260681 922.730591,380.009277 
	C921.626831,385.259369 920.133667,390.469727 918.350403,395.916138 
	C914.651550,394.268951 911.373596,392.082062 907.814270,390.548065 
	C856.132874,368.274658 804.420349,346.073273 752.701843,323.886139 
	C697.157837,300.057922 641.586853,276.292511 586.051270,252.444611 
	C532.963318,229.647766 479.910400,206.769257 426.831543,183.951233 
	C413.523315,178.230194 400.185242,172.577972 386.832672,166.961258 
	C384.852875,166.128464 382.716522,165.667740 380.261108,164.995056 
	C382.178925,160.512589 384.488281,156.069946 386.958252,151.313416 
z"/>
<path fill="#0F4280" opacity="1.000000" stroke="none" 
	d="
M138.936401,922.298462 
	C154.569550,925.212891 170.062393,928.373779 185.529037,931.657959 
	C225.110153,940.062622 264.682922,948.506714 304.252289,956.966492 
	C324.280121,961.248352 344.293427,965.598328 364.718994,969.945801 
	C368.372894,982.387817 371.621155,994.801636 374.851501,1007.604370 
	C296.917419,991.245605 218.995239,974.525269 141.093292,957.711243 
	C132.513123,955.859253 124.048851,953.470337 115.214569,951.138428 
	C122.860283,941.497986 130.822235,932.049500 138.936401,922.298462 
z"/>
<path fill="#0C3669" opacity="1.000000" stroke="none" 
	d="
M179.903717,1169.669189 
	C168.480103,1167.846436 156.858231,1165.901978 145.322968,1163.535522 
	C123.500679,1159.058838 101.732422,1154.319214 79.928467,1149.751953 
	C77.669662,1149.278687 75.321472,1149.232056 72.588470,1148.981689 
	C65.465996,1115.251831 58.769814,1081.527710 52.469460,1047.488403 
	C75.952339,1052.437012 99.039383,1057.700806 122.126434,1062.964600 
	C125.458626,1069.046021 128.811096,1075.116455 132.119415,1081.210693 
	C145.064484,1105.056396 158.004501,1128.904785 170.925247,1152.763672 
	C173.907959,1158.271362 176.807037,1163.824585 179.903717,1169.669189 
z"/>
<path fill="#1559AB" opacity="1.000000" stroke="none" 
	d="
M1155.905396,895.039856 
	C1149.098877,887.635803 1142.211304,880.304138 1135.509155,872.806702 
	C1129.250244,865.805054 1123.250488,858.572266 1117.025879,851.539185 
	C1105.986694,839.066040 1094.854248,826.675354 1083.799438,814.216003 
	C1083.169189,813.505737 1082.885498,812.487915 1081.956787,810.662170 
	C1089.306396,812.988892 1095.929688,814.900818 1102.425293,817.177063 
	C1120.988159,823.681946 1139.482422,830.382263 1158.034302,836.918518 
	C1189.080444,847.856812 1220.141846,858.752502 1251.227905,869.576538 
	C1253.553955,870.386414 1254.066284,871.301758 1253.710693,873.798035 
	C1252.575928,881.764648 1251.840698,889.788940 1250.991699,897.795227 
	C1250.592285,901.560669 1250.285645,905.335999 1249.556274,909.655029 
	C1246.684570,912.682678 1243.864746,912.813110 1240.516724,912.060852 
	C1224.762451,908.521057 1208.989990,905.046875 1193.163208,901.850403 
	C1180.790039,899.351379 1168.328003,897.293640 1155.905396,895.039856 
z"/>
<path fill="#13509A" opacity="1.000000" stroke="none" 
	d="
M334.887787,828.586670 
	C323.608948,826.747803 312.364685,824.595398 301.159760,822.254578 
	C280.997894,818.042480 260.863647,813.698486 240.705078,809.470398 
	C238.770828,809.064697 236.746552,809.088074 234.323654,808.872803 
	C240.805359,800.489868 247.433273,791.876160 254.759308,783.903931 
	C259.189117,779.083496 264.619843,775.157104 269.744446,771.006287 
	C280.975098,761.909790 292.298950,752.928406 303.581390,743.895874 
	C316.528748,733.530518 329.488831,723.181030 342.408936,712.781799 
	C346.900391,709.166687 351.274139,705.405579 355.734344,701.751099 
	C356.969360,700.739197 358.321808,699.870605 360.806946,698.082458 
	C358.627319,707.701721 356.759796,716.031250 354.851044,724.351379 
	C348.616516,751.527161 342.111481,778.645020 336.295380,805.909912 
	C334.760559,813.104919 335.334473,820.749817 334.887787,828.586670 
z"/>
<path fill="#0E3C76" opacity="1.000000" stroke="none" 
	d="
M368.987885,188.318802 
	C375.374969,190.302124 381.688843,192.362106 387.773163,194.959717 
	C438.773590,216.733536 489.744049,238.577606 540.699219,260.457184 
	C586.757507,280.234100 632.775330,300.105133 678.829163,319.892456 
	C722.740662,338.759369 766.677673,357.566498 810.599182,376.410065 
	C841.819397,389.804382 873.028870,403.223633 904.259216,416.594147 
	C905.763794,417.238251 907.424133,417.518341 909.385620,417.980164 
	C908.059265,421.530212 906.359192,425.068085 904.397583,428.824646 
	C887.113098,421.873871 870.054932,414.786804 853.074402,407.518433 
	C813.748047,390.685028 774.462952,373.755096 735.153992,356.880859 
	C699.056274,341.385193 662.946472,325.917542 626.847046,310.425842 
	C587.536316,293.556000 548.226440,276.684113 508.925262,259.791962 
	C472.223480,244.017029 435.548645,228.179153 398.829224,212.445450 
	C387.979401,207.796463 377.018341,203.406952 365.672302,198.824005 
	C366.426941,195.381210 367.617584,192.012939 368.987885,188.318802 
z"/>
<path fill="#08284F" opacity="1.000000" stroke="none" 
	d="
M982.244385,1452.311279 
	C995.361023,1454.545410 1008.592285,1456.989136 1021.760010,1459.737427 
	C1044.874634,1464.561401 1067.946533,1469.590210 1091.049316,1474.471558 
	C1092.979858,1474.879517 1095.008911,1474.821655 1097.417236,1474.972656 
	C1082.006714,1510.481445 1064.166626,1544.957397 1044.038086,1579.431152 
	C1042.726440,1577.486084 1041.706299,1576.306519 1041.049438,1574.951050 
	C1021.904114,1535.443848 1002.791870,1495.920532 983.695801,1456.389404 
	C983.122498,1455.202637 982.780396,1453.904297 982.244385,1452.311279 
z"/>
<path fill="#0E3C76" opacity="1.000000" stroke="none" 
	d="
M122.043961,1062.611572 
	C99.039383,1057.700806 75.952339,1052.437012 52.513824,1047.079346 
	C48.754078,1025.637573 45.260456,1004.302673 41.965717,982.937073 
	C39.527466,967.125549 37.326912,951.277161 35.082428,935.436401 
	C34.827347,933.636169 34.973221,931.778992 34.903229,929.505127 
	C50.267326,932.226685 65.668045,935.359802 81.045265,938.604309 
	C82.610985,938.934631 84.035614,939.933594 85.789276,940.875854 
	C82.425026,945.207764 78.984299,949.476379 75.100800,953.294678 
	C72.678169,955.676758 72.476097,957.704041 73.840889,960.657837 
	C82.987228,980.453125 91.829689,1000.390381 101.115135,1020.119446 
	C107.787285,1034.296021 114.993507,1048.221191 122.043961,1062.611572 
z"/>
<path fill="#1353A0" opacity="1.000000" stroke="none" 
	d="
M1156.049561,895.350830 
	C1168.328003,897.293640 1180.790039,899.351379 1193.163208,901.850403 
	C1208.989990,905.046875 1224.762451,908.521057 1240.516724,912.060852 
	C1243.864746,912.813110 1246.684570,912.682678 1249.498535,910.095581 
	C1248.544312,920.594910 1247.316528,931.208130 1245.975952,941.807068 
	C1244.654175,952.256897 1243.318115,962.706726 1241.807373,973.130371 
	C1239.851685,986.624573 1237.716309,1000.092834 1235.349365,1013.836914 
	C1233.069824,1013.046204 1231.212891,1011.521729 1229.110229,1011.012146 
	C1216.402100,1007.932678 1203.637695,1005.085388 1190.533081,1002.069824 
	C1192.747437,996.129089 1195.333984,990.284546 1197.890991,984.427185 
	C1201.445923,976.283752 1205.137939,968.193237 1208.383545,959.927795 
	C1209.015503,958.318665 1208.563843,955.413452 1207.442261,954.121582 
	C1196.505981,941.525696 1185.271973,929.189331 1174.226440,916.687439 
	C1168.113647,909.768799 1162.198120,902.676025 1156.049561,895.350830 
z"/>
<path fill="#13509A" opacity="1.000000" stroke="none" 
	d="
M426.577606,99.357826 
	C426.392670,99.722145 426.082550,99.776543 425.302856,99.879021 
	C425.372955,99.634033 425.912720,99.340973 426.577606,99.357826 
z"/>
<path fill="#0B3364" opacity="1.000000" stroke="none" 
	d="
M952.213379,1361.004028 
	C952.170166,1360.873047 952.344482,1360.628174 952.696106,1360.237061 
	C952.825989,1360.409302 952.678406,1360.675781 952.213379,1361.004028 
z"/>
<path fill="#072446" opacity="1.000000" stroke="none" 
	d="
M483.776489,1394.754883 
	C483.636017,1394.766235 483.440796,1394.543213 483.151184,1394.109863 
	C483.310150,1394.068604 483.531799,1394.275513 483.776489,1394.754883 
z"/>
<path fill="#000000" opacity="1.000000" stroke="none" 
	d="
M625.849243,1139.999512 
	C637.691956,1138.665161 649.081116,1137.411255 660.447327,1135.975464 
	C672.743408,1134.422485 684.990601,1132.441895 697.310608,1131.132202 
	C707.452332,1130.053955 717.668640,1129.674072 727.853210,1129.004639 
	C733.002930,1128.666260 736.007935,1132.310059 736.441345,1136.218506 
	C737.353149,1144.441040 737.335083,1152.835938 736.880981,1161.115356 
	C736.594788,1166.333008 732.115356,1168.903809 727.497559,1169.864136 
	C721.922302,1171.023682 716.182861,1171.701172 710.489319,1171.913330 
	C701.672119,1172.241943 692.831726,1172.115601 684.004517,1171.973999 
	C669.083374,1171.734497 654.131042,1171.843628 639.254456,1170.859375 
	C623.415039,1169.811523 607.620422,1167.884521 591.863098,1165.891479 
	C585.289856,1165.060303 583.212952,1161.898438 583.014404,1155.141968 
	C582.859741,1149.879639 585.166443,1146.393188 591.073364,1145.056519 
	C598.830200,1143.301270 606.749329,1142.237671 614.622986,1141.036011 
	C618.180359,1140.493042 621.796204,1140.333496 625.849243,1139.999512 
M722.439819,1161.120728 
	C727.578979,1158.929688 728.087341,1154.636475 728.087585,1149.734131 
	C728.087830,1144.353638 724.743774,1141.973755 720.590210,1140.289551 
	C716.929688,1138.805298 710.014404,1140.880005 708.018677,1143.664795 
	C705.445068,1147.255859 705.173340,1154.731323 707.498840,1157.970093 
	C710.461121,1162.095703 715.560913,1163.399414 722.439819,1161.120728 
z"/>
<path fill="#3988EA" opacity="1.000000" stroke="none" 
	d="
M722.146973,1161.380249 
	C715.560913,1163.399414 710.461121,1162.095703 707.498840,1157.970093 
	C705.173340,1154.731323 705.445068,1147.255859 708.018677,1143.664795 
	C710.014404,1140.880005 716.929688,1138.805298 720.590210,1140.289551 
	C724.743774,1141.973755 728.087830,1144.353638 728.087585,1149.734131 
	C728.087341,1154.636475 727.578979,1158.929688 722.146973,1161.380249 
z"/>
</svg>